# xmcd CD database file
#
# Track frame offsets:
#	150
#	15289
#	28858
#	35059
#	51605
#	62439
#	76330
#	90253
#	100972
#	119154
#	134671
#	153766
#	161938
#	172209
#	191688
#	212022
#	234138
#	247073
#	264645
#	277921
#	294763
#	311375
#	325303
#
# Disc length: 4762 seconds
#
# Revision: 0
# Processed by: cddbd v1.5.2PL0 Copyright (c) Steve Scherf et al.
# Submitted via: CDex 1.51
#
DISCID=47129817
DTITLE=Duke Ellington - 4 Originals
DYEAR=1900
DGENRE=Jazz
TTITLE0=Such Sweet Thunder
TTITLE1=Sonnet For Caesar
TTITLE2=Sonnet To Hank 5
TTITLE3=Lady Mac
TTITLE4=Sonnet In Seach Of A Moor
TTITLE5=The Telecasters
TTITLE6=Up And Down, Up And Down
TTITLE7=Sonnet For Sister Kate
TTITLE8=The Star-Crossed Lovers
TTITLE9=Madness In Great Ones
TTITLE10=Half The Fun
TTITLE11=Circle In Fourths
TTITLE12=Summertime
TTITLE13=Laura
TTITLE14=I Can't Get Started
TTITLE15=My Funny Valentine
TTITLE16=Everything But You
TTITLE17=Frustation
TTITLE18=Cottontail
TTITLE19=Daydream
TTITLE20=Deep Purple
TTITLE21=Indian Summer
TTITLE22=Blues
EXTD=
EXTT0=
EXTT1=
EXTT2=
EXTT3=
EXTT4=
EXTT5=
EXTT6=
EXTT7=
EXTT8=
EXTT9=
EXTT10=
EXTT11=
EXTT12=
EXTT13=
EXTT14=
EXTT15=
EXTT16=
EXTT17=
EXTT18=
EXTT19=
EXTT20=
EXTT21=
EXTT22=
PLAYORDER=
